# xmcd
#
# Track frame offsets:
#	150
#	64787
#	134084
#	167059
#	202828
#	245022
#	290256
#
# Disc length: 4284 seconds
#
# Revision: 1
# Processed by: cddbd v1.5.2PL0 Copyright (c) Steve Scherf et al.
# Submitted via: audiograbber 1.83.01
#
DISCID=6710ba07
DTITLE=Grateful Dead - 78-05-09A Onondaga County War Memorial, Syracuse NY
DYEAR=1900
DGENRE=
TTITLE0=Dancing In The Streets
TTITLE1=Drums
TTITLE2=Space
TTITLE3=Not Fade Away
TTITLE4=Black Peter
TTITLE5=Around and Around
TTITLE6=Werewolves Of London
EXTD=
EXTT0=
EXTT1=
EXTT2=
EXTT3=
EXTT4=
EXTT5=
EXTT6=
PLAYORDER=
